<svg xmlns="http://www.w3.org/2000/svg" version="1.1" xmlns:xlink="http://www.w3.org/1999/xlink" xmlns:svgjs="http://svgjs.dev/svgjs" width="1500" height="412" viewBox="0 0 1500 412"><g transform="matrix(1,0,0,1,-0.9090909090909918,-0.8472217699645341)"><svg viewBox="0 0 396 109" data-background-color="#000000" preserveAspectRatio="xMidYMid meet" height="412" width="1500" xmlns="http://www.w3.org/2000/svg" xmlns:xlink="http://www.w3.org/1999/xlink"><g id="tight-bounds" transform="matrix(1,0,0,1,0.2400000000000091,0.22414362360711948)"><svg viewBox="0 0 395.52 108.55171275278579" height="108.55171275278579" width="395.52"><g><svg viewBox="0 0 395.52 108.55171275278579" height="108.55171275278579" width="395.52"><g><svg viewBox="0 0 395.52 108.55171275278579" height="108.55171275278579" width="395.52"><g id="textblocktransform"><svg viewBox="0 0 395.52 108.55171275278579" height="108.55171275278579" width="395.52" id="textblock"><g><svg viewBox="0 0 395.52 108.55171275278579" height="108.55171275278579" width="395.52"><g transform="matrix(1,0,0,1,0,0)"><svg width="395.52" viewBox="2.2 -32.75 121.14 33.25" height="108.55171275278579" data-palette-color="url(#2893e432-8e2a-4a7b-9a3d-42350f95568c)"></svg></g></svg></g></svg></g></svg></g></svg></g><defs></defs><mask id="3a836483-7bd3-4d86-baa2-0c5525154d17"><g id="SvgjsG1176"><svg viewBox="0 0 395.52 108.55171275278579" height="108.55171275278579" width="395.52"><g><svg viewBox="0 0 395.52 108.55171275278579" height="108.55171275278579" width="395.52"><g><svg viewBox="0 0 395.52 108.55171275278579" height="108.55171275278579" width="395.52"><g id="SvgjsG1175"><svg viewBox="0 0 395.52 108.55171275278579" height="108.55171275278579" width="395.52" id="SvgjsSvg1174"><g><svg viewBox="0 0 395.52 108.55171275278579" height="108.55171275278579" width="395.52"><g transform="matrix(1,0,0,1,0,0)"><svg width="395.52" viewBox="2.2 -32.75 121.14 33.25" height="108.55171275278579" data-palette-color="url(#2893e432-8e2a-4a7b-9a3d-42350f95568c)"><path d="M3.9 0L3.9-27.45Q3.55-27.55 3.1-27.68 2.65-27.8 2.2-27.85L2.2-27.85 2.85-31.3Q7.2-30.75 11.13-28.53 15.05-26.3 17.8-22.4L17.8-22.4 17.8-30.8 21.3-30.8 21.3 0 17.8 0 17.75-15.75Q15.9-19.45 13.35-22.23 10.8-25 7.4-26.6L7.4-26.6 7.4 0 3.9 0ZM43-10.35L30.8-10.35 30.8-3.8Q31.95-3 33.3-2.75 34.65-2.5 35.8-2.5L35.8-2.5Q37.95-2.5 39.67-2.98 41.4-3.45 43-4.55L43-4.55 43-1.2Q41.5-0.3 39.72 0.1 37.95 0.5 35.9 0.5L35.9 0.5Q32.7 0.5 30.27-0.4 27.85-1.3 25.85-3.05L25.85-3.05 27.6-5.1 27.6-13.25Q27.6-14.2 27.62-15.5 27.65-16.8 28.05-18.2 28.45-19.6 29.5-20.8L29.5-20.8Q30.85-22.3 32.42-22.65 34-23 35.25-23L35.25-23Q36.55-23 38.12-22.65 39.7-22.3 41-20.8L41-20.8Q42.05-19.6 42.47-18.2 42.9-16.8 42.95-15.5 43-14.2 43-13.25L43-13.25 43-10.35ZM30.8-13.35L39.5-13.35Q39.5-14.45 39.4-15.85 39.3-17.25 38.6-18.3L38.6-18.3Q38.3-18.8 37.5-19.4 36.7-20 35.15-20L35.15-20Q33.65-20 32.82-19.4 32-18.8 31.65-18.3L31.65-18.3Q31-17.25 30.9-15.85 30.8-14.45 30.8-13.35L30.8-13.35ZM47.1-28.5L51.3-28.5 51.3-22.5 56.05-22.5 56.05-19.4 51.3-19.4 51.3-12.95Q51.3-11.55 51.37-9.8 51.45-8.05 52.4-6.45L52.4-6.45Q53.1-5.3 54.57-4.05 56.05-2.8 57.35-2L57.35-2 55.45 0.5Q54-0.3 52.52-1.5 51.05-2.7 50.1-4L50.1-4Q48.75-5.9 48.42-7.83 48.1-9.75 48.1-11.65L48.1-11.65 48.1-25.35 47.1-28.5ZM75.24-30.8L75.24-27.6 64.84-27.6 64.84-19.35 71.34-19.35 71.34-16.15 64.84-16.15 64.84 0 61.34 0 61.34-27.6 60.34-30.8 75.24-30.8ZM78.99-30.8L82.54-30.8 82.54-27.05 78.99-27.05 78.99-30.8ZM78.14-22.5L82.34-22.5 82.34 0 79.19 0 79.19-19.35 78.14-22.5ZM87.24-32.75L91.44-32.75 91.44-12.95Q91.44-10.2 91.71-8.33 91.99-6.45 93.04-5 94.09-3.55 96.39-2.15L96.39-2.15 94.74 0.5Q91.99-0.95 90.59-2.78 89.19-4.6 88.71-7.05 88.24-9.5 88.24-12.95L88.24-12.95 88.24-29.6 87.24-32.75ZM99.79-17.25L98.39-19.7Q101.14-21.35 104.49-22.18 107.84-23 111.49-23L111.49-23Q112.39-23 114.04-22.85 115.69-22.7 117.51-22.15 119.34-21.6 120.69-20.3L120.69-20.3Q122.59-18.5 122.96-16.23 123.34-13.95 123.34-11.9L123.34-11.9 123.34 0 120.19 0 120.19-10.15Q120.19-11.4 120.14-12.88 120.09-14.35 119.74-15.73 119.39-17.1 118.44-18.05L118.44-18.05Q117.54-19 115.99-19.5 114.44-20 113.19-20L113.19-20 113.19 0 109.99 0 109.99-20Q108.24-20 106.41-19.68 104.59-19.35 102.99-18.65L102.99-18.65 102.99 0 99.79 0 99.79-17.25Z" opacity="1" transform="matrix(1,0,0,1,0,0)" fill="white" class="wordmark-text-0" id="SvgjsPath1173"></path></svg></g></svg></g></svg></g></svg></g></svg></g><defs><mask></mask></defs></svg><rect width="395.52" height="108.55171275278579" fill="black" stroke="none" visibility="hidden"></rect></g></mask><linearGradient x1="0" x2="1" y1="0.5" y2="0.5" id="2893e432-8e2a-4a7b-9a3d-42350f95568c"><stop stop-color="#ffa62e" offset="0"></stop><stop stop-color="#f71b3d" offset="1"></stop></linearGradient><rect width="395.52" height="108.55171275278579" fill="url(#2893e432-8e2a-4a7b-9a3d-42350f95568c)" mask="url(#3a836483-7bd3-4d86-baa2-0c5525154d17)" data-fill-palette-color="primary"></rect></svg><rect width="395.52" height="108.55171275278579" fill="none" stroke="none" visibility="hidden"></rect></g></svg></g></svg>